# xmcd
#
# Track frame offsets:
#	150
#	12130
#	21978
#	31515
#	41193
#	50900
#	61520
#	72378
#	81745
#	92183
#	102183
#	114668
#	123213
#	133428
#	143258
#	151920
#	163353
#	173810
#	184573
#	194263
#	204153
#	214688
#	224295
#	235883
#
# Disc length: 3284 seconds
#
# Revision: 0
# Processed by: cddbd v1.5.2PL0 Copyright (c) Steve Scherf et al.
# Submitted via: audiograbber 1.83.01
#
DISCID=540cd218
DTITLE=Ricky Nelson - Six Classic Albums Plus Bonus Singles
DYEAR=1900
DGENRE=
TTITLE0=I'm Not Afraid
TTITLE1=Baby Won't You Please Come Home
TTITLE2=Here I Go Again
TTITLE3=I'd Climb The Highest Mountain
TTITLE4=Make Believe
TTITLE5=Ain't Nothin But Love
TTITLE6=When Your Lover Has Gone
TTITLE7=Proving My Love
TTITLE8=Hey Pretty Baby
TTITLE9=Time After Time
TTITLE10=I'm All Through With You
TTITLE11=Again
TTITLE12=My One Desire
TTITLE13=That Warm Summer Night
TTITLE14=Break My Chain
TTITLE15=Do You Know What It Means (To M
TTITLE16=I'll Make Believe
TTITLE17=Travelin' Man
TTITLE18=Oh Yeah, I'm In Love
TTITLE19=Everybody But Me
TTITLE20=Lucky Star
TTITLE21=Sure Fire Bet
TTITLE22=Stars Fell On Alabama
TTITLE23=Hello Mary Lou
EXTD=
EXTT0=
EXTT1=
EXTT2=
EXTT3=
EXTT4=
EXTT5=
EXTT6=
EXTT7=
EXTT8=
EXTT9=
EXTT10=
EXTT11=
EXTT12=
EXTT13=
EXTT14=
EXTT15=
EXTT16=
EXTT17=
EXTT18=
EXTT19=
EXTT20=
EXTT21=
EXTT22=
EXTT23=
PLAYORDER=
